<svg xmlns="http://www.w3.org/2000/svg" width="22" height="23" viewBox="0 0 22 23">
  <defs>
    <style>
      .cls-1 {
        fill: #323232;
        fill-rule: evenodd;
      }
    </style>
  </defs>
  <path id="Icon-Suche" class="cls-1" d="M507.725,98.2a9.371,9.371,0,0,1-1.192-.961l-7.372,7.441a0.436,0.436,0,0,0-.043.043l-0.013.015v0a0.758,0.758,0,0,0,.566,1.262,0.748,0.748,0,0,0,.492-0.193l0.012,0.011Zm5.6-15.2a7.667,7.667,0,1,0,7.585,7.667A7.627,7.627,0,0,0,513.325,83m0,1.534a6.133,6.133,0,1,1-6.068,6.134,6.107,6.107,0,0,1,6.068-6.134" transform="translate(-498.906 -83)"/>
</svg>
